<mxfile host="app.diagrams.net" modified="2023-08-14T13:46:27.359Z" agent="Mozilla/5.0 (Macintosh; Intel Mac OS X 10_15_7) AppleWebKit/537.36 (KHTML, like Gecko) Chrome/115.0.0.0 Safari/537.36" etag="hPRwSJ1dkJjkLR0IySlU" version="21.6.8" type="github">
  <diagram id="C5RBs43oDa-KdzZeNtuy" name="Page-1">
    <mxGraphModel dx="934" dy="1769" grid="1" gridSize="10" guides="1" tooltips="1" connect="1" arrows="1" fold="1" page="1" pageScale="1" pageWidth="827" pageHeight="1169" math="0" shadow="0">
      <root>
        <mxCell id="WIyWlLk6GJQsqaUBKTNV-0" />
        <mxCell id="WIyWlLk6GJQsqaUBKTNV-1" parent="WIyWlLk6GJQsqaUBKTNV-0" />
        <mxCell id="WIyWlLk6GJQsqaUBKTNV-6" value="Je tape&amp;nbsp;&lt;br&gt;trois lettres?" style="rhombus;whiteSpace=wrap;html=1;shadow=0;fontFamily=Helvetica;fontSize=12;align=center;strokeWidth=1;spacing=6;spacingTop=-4;" parent="WIyWlLk6GJQsqaUBKTNV-1" vertex="1">
          <mxGeometry x="130" y="140" width="180" height="100" as="geometry" />
        </mxCell>
        <mxCell id="WIyWlLk6GJQsqaUBKTNV-10" value="Le filtre est-il appliqué &lt;br&gt;avec un mot correspondant &lt;br&gt;à une recette?" style="rhombus;whiteSpace=wrap;html=1;shadow=0;fontFamily=Helvetica;fontSize=12;align=center;strokeWidth=1;spacing=6;spacingTop=-4;" parent="WIyWlLk6GJQsqaUBKTNV-1" vertex="1">
          <mxGeometry x="120" y="290" width="200" height="140" as="geometry" />
        </mxCell>
        <mxCell id="qFhbp3lelS0BnjIZJEXg-34" value="&lt;span style=&quot;color: rgb(0, 0, 0); font-family: Helvetica; font-size: 12px; font-style: normal; font-variant-ligatures: normal; font-variant-caps: normal; font-weight: 400; letter-spacing: normal; orphans: 2; text-align: center; text-indent: 0px; text-transform: none; widows: 2; word-spacing: 0px; -webkit-text-stroke-width: 0px; background-color: rgb(251, 251, 251); text-decoration-thickness: initial; text-decoration-style: initial; text-decoration-color: initial; float: none; display: inline !important;&quot;&gt;La barre de recherche est préssée.&lt;/span&gt;" style="rounded=0;whiteSpace=wrap;html=1;" vertex="1" parent="WIyWlLk6GJQsqaUBKTNV-1">
          <mxGeometry x="152" y="21" width="134" height="60" as="geometry" />
        </mxCell>
        <mxCell id="qFhbp3lelS0BnjIZJEXg-37" value="&lt;span style=&quot;color: rgb(0, 0, 0); font-family: Helvetica; font-size: 12px; font-style: normal; font-variant-ligatures: normal; font-variant-caps: normal; font-weight: 400; letter-spacing: normal; orphans: 2; text-align: center; text-indent: 0px; text-transform: none; widows: 2; word-spacing: 0px; -webkit-text-stroke-width: 0px; background-color: rgb(251, 251, 251); text-decoration-thickness: initial; text-decoration-style: initial; text-decoration-color: initial; float: none; display: inline !important;&quot;&gt;Aucuns filtre &lt;br&gt;n&#39;est appliqué.&lt;/span&gt;" style="rounded=0;whiteSpace=wrap;html=1;" vertex="1" parent="WIyWlLk6GJQsqaUBKTNV-1">
          <mxGeometry x="450" y="160" width="120" height="60" as="geometry" />
        </mxCell>
        <mxCell id="qFhbp3lelS0BnjIZJEXg-38" value="&lt;b&gt;FIN&lt;/b&gt;" style="rounded=1;whiteSpace=wrap;html=1;" vertex="1" parent="WIyWlLk6GJQsqaUBKTNV-1">
          <mxGeometry x="600" y="160" width="120" height="60" as="geometry" />
        </mxCell>
        <mxCell id="qFhbp3lelS0BnjIZJEXg-39" value="" style="endArrow=classic;html=1;rounded=0;entryX=0;entryY=0.5;entryDx=0;entryDy=0;exitX=1;exitY=0.5;exitDx=0;exitDy=0;" edge="1" parent="WIyWlLk6GJQsqaUBKTNV-1" source="qFhbp3lelS0BnjIZJEXg-37" target="qFhbp3lelS0BnjIZJEXg-38">
          <mxGeometry width="50" height="50" relative="1" as="geometry">
            <mxPoint x="280" y="300" as="sourcePoint" />
            <mxPoint x="330" y="250" as="targetPoint" />
          </mxGeometry>
        </mxCell>
        <mxCell id="qFhbp3lelS0BnjIZJEXg-41" value="Afiichage de la phrase:&lt;br&gt;Aucun résultat." style="rounded=0;whiteSpace=wrap;html=1;" vertex="1" parent="WIyWlLk6GJQsqaUBKTNV-1">
          <mxGeometry x="450" y="330" width="120" height="60" as="geometry" />
        </mxCell>
        <mxCell id="qFhbp3lelS0BnjIZJEXg-53" value="" style="endArrow=classic;html=1;rounded=0;exitX=0.5;exitY=1;exitDx=0;exitDy=0;entryX=0.5;entryY=0;entryDx=0;entryDy=0;" edge="1" parent="WIyWlLk6GJQsqaUBKTNV-1" source="qFhbp3lelS0BnjIZJEXg-34" target="WIyWlLk6GJQsqaUBKTNV-6">
          <mxGeometry width="50" height="50" relative="1" as="geometry">
            <mxPoint x="280" y="300" as="sourcePoint" />
            <mxPoint x="330" y="250" as="targetPoint" />
          </mxGeometry>
        </mxCell>
        <mxCell id="qFhbp3lelS0BnjIZJEXg-60" value="" style="endArrow=classic;html=1;rounded=0;exitX=0.5;exitY=1;exitDx=0;exitDy=0;entryX=0.5;entryY=0;entryDx=0;entryDy=0;" edge="1" parent="WIyWlLk6GJQsqaUBKTNV-1" source="WIyWlLk6GJQsqaUBKTNV-6" target="WIyWlLk6GJQsqaUBKTNV-10">
          <mxGeometry relative="1" as="geometry">
            <mxPoint x="230" y="280" as="sourcePoint" />
            <mxPoint x="390" y="280" as="targetPoint" />
          </mxGeometry>
        </mxCell>
        <mxCell id="qFhbp3lelS0BnjIZJEXg-61" value="&lt;b&gt;Oui&lt;/b&gt;" style="edgeLabel;resizable=0;html=1;align=center;verticalAlign=middle;" connectable="0" vertex="1" parent="qFhbp3lelS0BnjIZJEXg-60">
          <mxGeometry relative="1" as="geometry" />
        </mxCell>
        <mxCell id="qFhbp3lelS0BnjIZJEXg-64" value="&lt;b&gt;Non&lt;/b&gt;" style="endArrow=classic;html=1;rounded=0;exitX=1;exitY=0.5;exitDx=0;exitDy=0;entryX=0;entryY=0.5;entryDx=0;entryDy=0;" edge="1" parent="WIyWlLk6GJQsqaUBKTNV-1">
          <mxGeometry x="0.0075" relative="1" as="geometry">
            <mxPoint x="310.9999999999998" y="190" as="sourcePoint" />
            <mxPoint x="451" y="190" as="targetPoint" />
            <mxPoint as="offset" />
          </mxGeometry>
        </mxCell>
        <mxCell id="qFhbp3lelS0BnjIZJEXg-68" value="" style="endArrow=classic;html=1;rounded=0;entryX=0;entryY=0.5;entryDx=0;entryDy=0;" edge="1" parent="WIyWlLk6GJQsqaUBKTNV-1" target="qFhbp3lelS0BnjIZJEXg-41">
          <mxGeometry relative="1" as="geometry">
            <mxPoint x="320" y="360" as="sourcePoint" />
            <mxPoint x="390" y="380" as="targetPoint" />
          </mxGeometry>
        </mxCell>
        <mxCell id="qFhbp3lelS0BnjIZJEXg-69" value="&lt;b&gt;Non&lt;/b&gt;" style="edgeLabel;resizable=0;html=1;align=center;verticalAlign=middle;" connectable="0" vertex="1" parent="qFhbp3lelS0BnjIZJEXg-68">
          <mxGeometry relative="1" as="geometry" />
        </mxCell>
        <mxCell id="qFhbp3lelS0BnjIZJEXg-72" value="" style="endArrow=classic;html=1;rounded=0;" edge="1" parent="WIyWlLk6GJQsqaUBKTNV-1">
          <mxGeometry width="50" height="50" relative="1" as="geometry">
            <mxPoint x="570" y="360" as="sourcePoint" />
            <mxPoint x="600" y="360" as="targetPoint" />
          </mxGeometry>
        </mxCell>
        <mxCell id="qFhbp3lelS0BnjIZJEXg-73" value="&lt;b&gt;FIN&lt;/b&gt;" style="rounded=1;whiteSpace=wrap;html=1;" vertex="1" parent="WIyWlLk6GJQsqaUBKTNV-1">
          <mxGeometry x="600" y="330" width="120" height="60" as="geometry" />
        </mxCell>
        <mxCell id="qFhbp3lelS0BnjIZJEXg-74" value="" style="endArrow=classic;html=1;rounded=0;exitX=0.5;exitY=1;exitDx=0;exitDy=0;" edge="1" parent="WIyWlLk6GJQsqaUBKTNV-1" source="WIyWlLk6GJQsqaUBKTNV-10">
          <mxGeometry relative="1" as="geometry">
            <mxPoint x="230" y="450" as="sourcePoint" />
            <mxPoint x="220" y="480" as="targetPoint" />
          </mxGeometry>
        </mxCell>
        <mxCell id="qFhbp3lelS0BnjIZJEXg-78" value="&lt;b&gt;Oui&lt;/b&gt;" style="edgeLabel;html=1;align=center;verticalAlign=middle;resizable=0;points=[];" vertex="1" connectable="0" parent="qFhbp3lelS0BnjIZJEXg-74">
          <mxGeometry x="0.0374" y="3" relative="1" as="geometry">
            <mxPoint as="offset" />
          </mxGeometry>
        </mxCell>
        <mxCell id="qFhbp3lelS0BnjIZJEXg-79" value="Un affichage est mis à jour&amp;nbsp;&lt;br&gt;avec le nombre de&amp;nbsp;&lt;br&gt;recettes conrespondante." style="rounded=0;whiteSpace=wrap;html=1;" vertex="1" parent="WIyWlLk6GJQsqaUBKTNV-1">
          <mxGeometry x="140" y="480" width="160" height="70" as="geometry" />
        </mxCell>
        <mxCell id="qFhbp3lelS0BnjIZJEXg-81" value="J&#39;éfface les lettres de la barre de recherche?" style="rhombus;whiteSpace=wrap;html=1;" vertex="1" parent="WIyWlLk6GJQsqaUBKTNV-1">
          <mxGeometry x="113" y="679" width="210" height="181" as="geometry" />
        </mxCell>
        <mxCell id="qFhbp3lelS0BnjIZJEXg-82" value="Aucun changement" style="rounded=0;whiteSpace=wrap;html=1;" vertex="1" parent="WIyWlLk6GJQsqaUBKTNV-1">
          <mxGeometry x="453" y="739.5" width="120" height="60" as="geometry" />
        </mxCell>
        <mxCell id="qFhbp3lelS0BnjIZJEXg-83" value="" style="endArrow=classic;html=1;rounded=0;entryX=0;entryY=0.5;entryDx=0;entryDy=0;" edge="1" parent="WIyWlLk6GJQsqaUBKTNV-1" target="qFhbp3lelS0BnjIZJEXg-82">
          <mxGeometry relative="1" as="geometry">
            <mxPoint x="323" y="769.5" as="sourcePoint" />
            <mxPoint x="393" y="789.5" as="targetPoint" />
          </mxGeometry>
        </mxCell>
        <mxCell id="qFhbp3lelS0BnjIZJEXg-84" value="&lt;b&gt;Non&lt;/b&gt;" style="edgeLabel;resizable=0;html=1;align=center;verticalAlign=middle;" connectable="0" vertex="1" parent="qFhbp3lelS0BnjIZJEXg-83">
          <mxGeometry relative="1" as="geometry" />
        </mxCell>
        <mxCell id="qFhbp3lelS0BnjIZJEXg-85" value="" style="endArrow=classic;html=1;rounded=0;" edge="1" parent="WIyWlLk6GJQsqaUBKTNV-1">
          <mxGeometry width="50" height="50" relative="1" as="geometry">
            <mxPoint x="573" y="769.5" as="sourcePoint" />
            <mxPoint x="603" y="769.5" as="targetPoint" />
          </mxGeometry>
        </mxCell>
        <mxCell id="qFhbp3lelS0BnjIZJEXg-86" value="&lt;b&gt;FIN&lt;/b&gt;" style="rounded=1;whiteSpace=wrap;html=1;" vertex="1" parent="WIyWlLk6GJQsqaUBKTNV-1">
          <mxGeometry x="603" y="739.5" width="120" height="60" as="geometry" />
        </mxCell>
        <mxCell id="qFhbp3lelS0BnjIZJEXg-87" value="" style="endArrow=classic;html=1;rounded=0;exitX=0.5;exitY=1;exitDx=0;exitDy=0;" edge="1" parent="WIyWlLk6GJQsqaUBKTNV-1">
          <mxGeometry relative="1" as="geometry">
            <mxPoint x="218.55" y="860" as="sourcePoint" />
            <mxPoint x="218.55" y="950" as="targetPoint" />
          </mxGeometry>
        </mxCell>
        <mxCell id="qFhbp3lelS0BnjIZJEXg-88" value="&lt;b&gt;Oui&lt;/b&gt;" style="edgeLabel;html=1;align=center;verticalAlign=middle;resizable=0;points=[];" vertex="1" connectable="0" parent="qFhbp3lelS0BnjIZJEXg-87">
          <mxGeometry x="0.0374" y="3" relative="1" as="geometry">
            <mxPoint as="offset" />
          </mxGeometry>
        </mxCell>
        <mxCell id="qFhbp3lelS0BnjIZJEXg-89" value="Un affichage est mis à jour&amp;nbsp;&lt;br&gt;avec les 50 recettes." style="rounded=0;whiteSpace=wrap;html=1;" vertex="1" parent="WIyWlLk6GJQsqaUBKTNV-1">
          <mxGeometry x="140" y="950" width="160" height="70" as="geometry" />
        </mxCell>
        <mxCell id="qFhbp3lelS0BnjIZJEXg-90" value="" style="endArrow=classic;html=1;rounded=0;exitX=0.453;exitY=1.035;exitDx=0;exitDy=0;exitPerimeter=0;" edge="1" parent="WIyWlLk6GJQsqaUBKTNV-1">
          <mxGeometry width="50" height="50" relative="1" as="geometry">
            <mxPoint x="218.48000000000002" y="1021.4499999999999" as="sourcePoint" />
            <mxPoint x="218" y="1109" as="targetPoint" />
          </mxGeometry>
        </mxCell>
        <mxCell id="qFhbp3lelS0BnjIZJEXg-91" value="&lt;b&gt;FIN&lt;/b&gt;" style="rounded=1;whiteSpace=wrap;html=1;" vertex="1" parent="WIyWlLk6GJQsqaUBKTNV-1">
          <mxGeometry x="158" y="1109" width="120" height="60" as="geometry" />
        </mxCell>
        <mxCell id="qFhbp3lelS0BnjIZJEXg-93" value="&lt;b&gt;Début&lt;/b&gt;" style="rounded=1;whiteSpace=wrap;html=1;" vertex="1" parent="WIyWlLk6GJQsqaUBKTNV-1">
          <mxGeometry x="150" y="-70" width="140" height="60" as="geometry" />
        </mxCell>
        <mxCell id="qFhbp3lelS0BnjIZJEXg-94" value="" style="endArrow=classic;html=1;rounded=0;exitX=0.5;exitY=1;exitDx=0;exitDy=0;entryX=0.5;entryY=0;entryDx=0;entryDy=0;" edge="1" parent="WIyWlLk6GJQsqaUBKTNV-1" source="qFhbp3lelS0BnjIZJEXg-93" target="qFhbp3lelS0BnjIZJEXg-34">
          <mxGeometry width="50" height="50" relative="1" as="geometry">
            <mxPoint x="310" y="90" as="sourcePoint" />
            <mxPoint x="360" y="40" as="targetPoint" />
          </mxGeometry>
        </mxCell>
        <mxCell id="qFhbp3lelS0BnjIZJEXg-95" value="" style="endArrow=classic;html=1;rounded=0;exitX=0.5;exitY=1;exitDx=0;exitDy=0;" edge="1" parent="WIyWlLk6GJQsqaUBKTNV-1" source="qFhbp3lelS0BnjIZJEXg-79">
          <mxGeometry width="50" height="50" relative="1" as="geometry">
            <mxPoint x="240" y="620" as="sourcePoint" />
            <mxPoint x="220" y="580" as="targetPoint" />
          </mxGeometry>
        </mxCell>
        <mxCell id="qFhbp3lelS0BnjIZJEXg-124" value="" style="edgeStyle=orthogonalEdgeStyle;rounded=0;orthogonalLoop=1;jettySize=auto;html=1;" edge="1" parent="WIyWlLk6GJQsqaUBKTNV-1" source="qFhbp3lelS0BnjIZJEXg-96" target="qFhbp3lelS0BnjIZJEXg-79">
          <mxGeometry relative="1" as="geometry" />
        </mxCell>
        <mxCell id="qFhbp3lelS0BnjIZJEXg-96" value="&lt;b&gt;FIN&lt;/b&gt;" style="rounded=1;whiteSpace=wrap;html=1;" vertex="1" parent="WIyWlLk6GJQsqaUBKTNV-1">
          <mxGeometry x="160" y="580" width="120" height="60" as="geometry" />
        </mxCell>
        <mxCell id="qFhbp3lelS0BnjIZJEXg-97" value="" style="endArrow=classic;html=1;rounded=0;exitX=0;exitY=0.5;exitDx=0;exitDy=0;" edge="1" parent="WIyWlLk6GJQsqaUBKTNV-1" source="WIyWlLk6GJQsqaUBKTNV-6" target="qFhbp3lelS0BnjIZJEXg-81">
          <mxGeometry width="50" height="50" relative="1" as="geometry">
            <mxPoint x="240" y="620" as="sourcePoint" />
            <mxPoint x="110" y="770" as="targetPoint" />
            <Array as="points">
              <mxPoint x="80" y="190" />
              <mxPoint x="80" y="770" />
            </Array>
          </mxGeometry>
        </mxCell>
        <mxCell id="qFhbp3lelS0BnjIZJEXg-99" value="&lt;font style=&quot;font-size: 24px;&quot;&gt;Algorithme de filtrage sur une barre de recherche&amp;nbsp;&amp;nbsp;&lt;/font&gt;" style="text;html=1;strokeColor=none;fillColor=none;align=center;verticalAlign=middle;whiteSpace=wrap;rounded=0;" vertex="1" parent="WIyWlLk6GJQsqaUBKTNV-1">
          <mxGeometry x="80" y="-160" width="560" height="40" as="geometry" />
        </mxCell>
        <mxCell id="qFhbp3lelS0BnjIZJEXg-101" value="&lt;span style=&quot;color: rgb(0, 0, 0); font-family: Helvetica; font-size: 24px; font-style: normal; font-variant-ligatures: normal; font-variant-caps: normal; font-weight: 400; letter-spacing: normal; orphans: 2; text-align: center; text-indent: 0px; text-transform: none; widows: 2; word-spacing: 0px; -webkit-text-stroke-width: 0px; background-color: rgb(251, 251, 251); text-decoration-thickness: initial; text-decoration-style: initial; text-decoration-color: initial; float: none; display: inline !important;&quot;&gt;Algorithme de filtrage les select box&amp;nbsp;&amp;nbsp;&lt;/span&gt;" style="text;whiteSpace=wrap;html=1;" vertex="1" parent="WIyWlLk6GJQsqaUBKTNV-1">
          <mxGeometry x="30" y="1180" width="560" height="80" as="geometry" />
        </mxCell>
        <mxCell id="qFhbp3lelS0BnjIZJEXg-127" value="" style="edgeStyle=orthogonalEdgeStyle;rounded=0;orthogonalLoop=1;jettySize=auto;html=1;" edge="1" parent="WIyWlLk6GJQsqaUBKTNV-1" source="qFhbp3lelS0BnjIZJEXg-109" target="qFhbp3lelS0BnjIZJEXg-123">
          <mxGeometry relative="1" as="geometry" />
        </mxCell>
        <mxCell id="qFhbp3lelS0BnjIZJEXg-109" value="Je tape dans la &lt;br&gt;barre de recherche?" style="rhombus;whiteSpace=wrap;html=1;shadow=0;fontFamily=Helvetica;fontSize=12;align=center;strokeWidth=1;spacing=6;spacingTop=-4;" vertex="1" parent="WIyWlLk6GJQsqaUBKTNV-1">
          <mxGeometry x="282" y="1549" width="180" height="100" as="geometry" />
        </mxCell>
        <mxCell id="qFhbp3lelS0BnjIZJEXg-110" value="&lt;span style=&quot;color: rgb(0, 0, 0); font-family: Helvetica; font-size: 12px; font-style: normal; font-variant-ligatures: normal; font-variant-caps: normal; font-weight: 400; letter-spacing: normal; orphans: 2; text-align: center; text-indent: 0px; text-transform: none; widows: 2; word-spacing: 0px; -webkit-text-stroke-width: 0px; background-color: rgb(251, 251, 251); text-decoration-thickness: initial; text-decoration-style: initial; text-decoration-color: initial; float: none; display: inline !important;&quot;&gt;La barre de recherche est ouverte.&lt;/span&gt;" style="rounded=0;whiteSpace=wrap;html=1;" vertex="1" parent="WIyWlLk6GJQsqaUBKTNV-1">
          <mxGeometry x="152" y="1470" width="134" height="60" as="geometry" />
        </mxCell>
        <mxCell id="qFhbp3lelS0BnjIZJEXg-111" value="" style="endArrow=classic;html=1;rounded=0;exitX=0.5;exitY=1;exitDx=0;exitDy=0;entryX=0.5;entryY=0;entryDx=0;entryDy=0;" edge="1" parent="WIyWlLk6GJQsqaUBKTNV-1" target="qFhbp3lelS0BnjIZJEXg-109">
          <mxGeometry width="50" height="50" relative="1" as="geometry">
            <mxPoint x="287" y="1530" as="sourcePoint" />
            <mxPoint x="398" y="1699" as="targetPoint" />
          </mxGeometry>
        </mxCell>
        <mxCell id="qFhbp3lelS0BnjIZJEXg-113" value="&lt;b&gt;Non&lt;/b&gt;" style="endArrow=classic;html=1;rounded=0;exitX=1;exitY=0.5;exitDx=0;exitDy=0;entryX=0;entryY=0.5;entryDx=0;entryDy=0;" edge="1" parent="WIyWlLk6GJQsqaUBKTNV-1">
          <mxGeometry x="0.0075" relative="1" as="geometry">
            <mxPoint x="462.9999999999998" y="1599" as="sourcePoint" />
            <mxPoint x="603" y="1599" as="targetPoint" />
            <mxPoint as="offset" />
          </mxGeometry>
        </mxCell>
        <mxCell id="qFhbp3lelS0BnjIZJEXg-114" value="&lt;b&gt;Début&lt;/b&gt;" style="rounded=1;whiteSpace=wrap;html=1;" vertex="1" parent="WIyWlLk6GJQsqaUBKTNV-1">
          <mxGeometry x="150" y="1240" width="140" height="60" as="geometry" />
        </mxCell>
        <mxCell id="qFhbp3lelS0BnjIZJEXg-115" value="" style="endArrow=classic;html=1;rounded=0;exitX=0.5;exitY=1;exitDx=0;exitDy=0;" edge="1" parent="WIyWlLk6GJQsqaUBKTNV-1">
          <mxGeometry width="50" height="50" relative="1" as="geometry">
            <mxPoint x="220" y="1300" as="sourcePoint" />
            <mxPoint x="220" y="1350" as="targetPoint" />
          </mxGeometry>
        </mxCell>
        <mxCell id="qFhbp3lelS0BnjIZJEXg-116" value="&lt;span style=&quot;color: rgb(0, 0, 0); font-family: Helvetica; font-size: 12px; font-style: normal; font-variant-ligatures: normal; font-variant-caps: normal; font-weight: 400; letter-spacing: normal; orphans: 2; text-align: center; text-indent: 0px; text-transform: none; widows: 2; word-spacing: 0px; -webkit-text-stroke-width: 0px; background-color: rgb(251, 251, 251); text-decoration-thickness: initial; text-decoration-style: initial; text-decoration-color: initial; float: none; display: inline !important;&quot;&gt;Aucuns filtre &lt;br&gt;n&#39;est appliqué.&lt;/span&gt;" style="rounded=0;whiteSpace=wrap;html=1;" vertex="1" parent="WIyWlLk6GJQsqaUBKTNV-1">
          <mxGeometry x="603" y="1569" width="120" height="60" as="geometry" />
        </mxCell>
        <mxCell id="qFhbp3lelS0BnjIZJEXg-117" value="&lt;b&gt;FIN&lt;/b&gt;" style="rounded=1;whiteSpace=wrap;html=1;" vertex="1" parent="WIyWlLk6GJQsqaUBKTNV-1">
          <mxGeometry x="753" y="1569" width="120" height="60" as="geometry" />
        </mxCell>
        <mxCell id="qFhbp3lelS0BnjIZJEXg-118" value="" style="endArrow=classic;html=1;rounded=0;entryX=0;entryY=0.5;entryDx=0;entryDy=0;exitX=1;exitY=0.5;exitDx=0;exitDy=0;" edge="1" parent="WIyWlLk6GJQsqaUBKTNV-1" source="qFhbp3lelS0BnjIZJEXg-116" target="qFhbp3lelS0BnjIZJEXg-117">
          <mxGeometry width="50" height="50" relative="1" as="geometry">
            <mxPoint x="433" y="1709" as="sourcePoint" />
            <mxPoint x="483" y="1659" as="targetPoint" />
          </mxGeometry>
        </mxCell>
        <mxCell id="qFhbp3lelS0BnjIZJEXg-121" value="" style="endArrow=classic;html=1;rounded=0;exitX=0.5;exitY=1;exitDx=0;exitDy=0;entryX=0.5;entryY=0;entryDx=0;entryDy=0;" edge="1" parent="WIyWlLk6GJQsqaUBKTNV-1">
          <mxGeometry relative="1" as="geometry">
            <mxPoint x="373" y="1649" as="sourcePoint" />
            <mxPoint x="373" y="1699" as="targetPoint" />
          </mxGeometry>
        </mxCell>
        <mxCell id="qFhbp3lelS0BnjIZJEXg-122" value="&lt;b&gt;Oui&lt;/b&gt;" style="edgeLabel;resizable=0;html=1;align=center;verticalAlign=middle;" connectable="0" vertex="1" parent="qFhbp3lelS0BnjIZJEXg-121">
          <mxGeometry relative="1" as="geometry" />
        </mxCell>
        <mxCell id="qFhbp3lelS0BnjIZJEXg-123" value="La liste de la select box est filtré avec la valeur du&lt;br&gt;&amp;nbsp;champ de recherche." style="rounded=0;whiteSpace=wrap;html=1;" vertex="1" parent="WIyWlLk6GJQsqaUBKTNV-1">
          <mxGeometry x="293" y="1699" width="160" height="70" as="geometry" />
        </mxCell>
        <mxCell id="qFhbp3lelS0BnjIZJEXg-125" value="" style="endArrow=classic;html=1;rounded=0;exitX=0.5;exitY=1;exitDx=0;exitDy=0;entryX=0.5;entryY=0;entryDx=0;entryDy=0;" edge="1" parent="WIyWlLk6GJQsqaUBKTNV-1" source="qFhbp3lelS0BnjIZJEXg-123" target="qFhbp3lelS0BnjIZJEXg-126">
          <mxGeometry width="50" height="50" relative="1" as="geometry">
            <mxPoint x="506" y="1729" as="sourcePoint" />
            <mxPoint x="373" y="1819" as="targetPoint" />
          </mxGeometry>
        </mxCell>
        <mxCell id="qFhbp3lelS0BnjIZJEXg-126" value="Je sélectionne une option &lt;br&gt;parmis la liste" style="rhombus;whiteSpace=wrap;html=1;" vertex="1" parent="WIyWlLk6GJQsqaUBKTNV-1">
          <mxGeometry x="130" y="1819" width="180" height="110" as="geometry" />
        </mxCell>
        <mxCell id="qFhbp3lelS0BnjIZJEXg-128" value="" style="endArrow=classic;html=1;rounded=0;exitX=0.5;exitY=1;exitDx=0;exitDy=0;entryX=0.5;entryY=0;entryDx=0;entryDy=0;" edge="1" parent="WIyWlLk6GJQsqaUBKTNV-1" source="qFhbp3lelS0BnjIZJEXg-110" target="qFhbp3lelS0BnjIZJEXg-126">
          <mxGeometry width="50" height="50" relative="1" as="geometry">
            <mxPoint x="122" y="1719" as="sourcePoint" />
            <mxPoint x="220" y="1809" as="targetPoint" />
          </mxGeometry>
        </mxCell>
        <mxCell id="qFhbp3lelS0BnjIZJEXg-129" value="" style="endArrow=classic;html=1;rounded=0;exitX=0.5;exitY=1;exitDx=0;exitDy=0;" edge="1" parent="WIyWlLk6GJQsqaUBKTNV-1" source="qFhbp3lelS0BnjIZJEXg-126">
          <mxGeometry width="50" height="50" relative="1" as="geometry">
            <mxPoint x="252" y="1909" as="sourcePoint" />
            <mxPoint x="222" y="1979" as="targetPoint" />
          </mxGeometry>
        </mxCell>
        <mxCell id="qFhbp3lelS0BnjIZJEXg-130" value="une modale est crée pour explicité la selection de l&#39;option" style="rounded=0;whiteSpace=wrap;html=1;" vertex="1" parent="WIyWlLk6GJQsqaUBKTNV-1">
          <mxGeometry x="162" y="1979" width="120" height="60" as="geometry" />
        </mxCell>
        <mxCell id="qFhbp3lelS0BnjIZJEXg-131" value="" style="endArrow=classic;html=1;rounded=0;exitX=0.5;exitY=1;exitDx=0;exitDy=0;" edge="1" parent="WIyWlLk6GJQsqaUBKTNV-1" source="qFhbp3lelS0BnjIZJEXg-130">
          <mxGeometry width="50" height="50" relative="1" as="geometry">
            <mxPoint x="252" y="1939" as="sourcePoint" />
            <mxPoint x="222" y="2089" as="targetPoint" />
          </mxGeometry>
        </mxCell>
        <mxCell id="qFhbp3lelS0BnjIZJEXg-132" value="&lt;b&gt;FIN&lt;/b&gt;" style="rounded=1;whiteSpace=wrap;html=1;" vertex="1" parent="WIyWlLk6GJQsqaUBKTNV-1">
          <mxGeometry x="162" y="2089" width="120" height="60" as="geometry" />
        </mxCell>
        <mxCell id="qFhbp3lelS0BnjIZJEXg-133" value="clique sur la select box" style="rhombus;whiteSpace=wrap;html=1;" vertex="1" parent="WIyWlLk6GJQsqaUBKTNV-1">
          <mxGeometry x="140" y="1350" width="160" height="70" as="geometry" />
        </mxCell>
        <mxCell id="qFhbp3lelS0BnjIZJEXg-134" value="" style="endArrow=classic;html=1;rounded=0;exitX=0.5;exitY=1;exitDx=0;exitDy=0;entryX=0.5;entryY=0;entryDx=0;entryDy=0;" edge="1" parent="WIyWlLk6GJQsqaUBKTNV-1" source="qFhbp3lelS0BnjIZJEXg-133" target="qFhbp3lelS0BnjIZJEXg-110">
          <mxGeometry width="50" height="50" relative="1" as="geometry">
            <mxPoint x="320" y="1300" as="sourcePoint" />
            <mxPoint x="370" y="1250" as="targetPoint" />
          </mxGeometry>
        </mxCell>
      </root>
    </mxGraphModel>
  </diagram>
</mxfile>
